<?xml version="1.0" encoding="utf-8"?>
<?xml-stylesheet type="text/xsl" href="rss1.xsl"?>
<rss version="2.0" xmlns:atom="http://www.w3.org/2005/Atom" xmlns:content="http://purl.org/rss/1.0/modules/content/" xmlns:dc="http://purl.org/dc/elements/1.1/" xmlns:media="http://search.yahoo.com/mrss/">
<channel>
 <title>Getty</title>
 <link>http://www.gettyimg.com/</link>
 <atom:link href="http://www.gettyimg.com/" rel="self" type="application/rss+xml" />

 
                <item>
                <title><![CDATA[【Unreleased/Unofficial (lossless)】Taylor Swift - Need (Remix + Remaster)]]></title>
                <link><![CDATA[https://sharemania.us/threads/taylor-swift-need-remix-remaster.231169/]]></link>
                <description><![CDATA[<article>
<blockquote class="messageText SelectQuoteContainer ugc baseHtml">
My remix and remaster of Need by Taylor Swift. (From Lover)<br>
<br>
<div class="bbCodeBlock bbCodeVfcHH HiddenContent">
<div class="attribution type">Hidden Content:</div>
<blockquote>You must reply before you can see the hidden data contained here.</blockquote>
</div>
<div class="messageTextEndMarker">&nbsp;</div>
</blockquote>
</article>]]></description>
                <author><![CDATA[TrashBanjo]]></author>
                </item>

                
                <item>
                <title><![CDATA[【UPSCALED】The Saturdays - If This Is Love (promo only) [1080p.60fps.x265.10bit]]]></title>
                <link><![CDATA[https://sharemania.us/threads/the-saturdays-if-this-is-love-promo-only-1080p-60fps-x265-10bit.231170/]]></link>
                <description><![CDATA[<article>
<blockquote class="messageText SelectQuoteContainer ugc baseHtml">
<img src="https://i.imgur.com/BsbCfiu.jpg" class="bbCodeImage LbImage" alt="[​IMG]" data-url="https://i.imgur.com/BsbCfiu.jpg" style=""><br>
<br>
<div class="bbCodeBlock bbCodeCode">
<div class="type">Code:</div>
<pre>General
Format                                   : Matroska
Format version                           : Version 4
File size                                : 411 MiB
Duration                                 : 3 min 20 s
Overall bit rate                         : 17.2 Mb/s
Frame rate                               : 59.940 FPS

Video
ID                                       : 1
Format                                   : HEVC
Format/Info                              : High Efficiency Video Coding
Format profile                           : Main 10@L5.1@High
Codec ID                                 : V_MPEGH/ISO/HEVC
Duration                                 : 3 min 20 s
Bit rate                                 : 16.4 Mb/s
Width                                    : 1 920 pixels
Height                                   : 1 080 pixels
Display aspect ratio                     : 16:9
Frame rate mode                          : Constant
Frame rate                               : 59.940 (60000/1001) FPS
Color space                              : YUV
Chroma subsampling                       : 4:2:0 (Type 0)
Bit depth                                : 10 bits
Bits/(Pixel*Frame)                       : 0.132
Stream size                              : 392 MiB (95%)
Default                                  : Yes
Forced                                   : No
Color range                              : Limited
Color primaries                          : BT.601 NTSC
Transfer characteristics                 : BT.709
Matrix coefficients                      : BT.601

Audio
ID                                       : 2
Format                                   : AC-3
Format/Info                              : Audio Coding 3
Commercial name                          : Dolby Digital
Codec ID                                 : A_AC3
Duration                                 : 3 min 20 s
Bit rate mode                            : Constant
Bit rate                                 : 448 kb/s
Channel(s)                               : 2 channels
Channel layout                           : L R
Sampling rate                            : 48.0 kHz
Frame rate                               : 31.250 FPS (1536 SPF)
Compression mode                         : Lossy
Delay relative to video                  : -5 ms
Stream size                              : 10.7 MiB (3%)
Title                                    : Stereo
Service kind                             : Complete Main
Default                                  : Yes
Forced                                   : No</pre>
</div><div style="text-align: center">
<div class="bbCodeBlock bbCodeVfcHH HiddenContent">
<div class="attribution type">Hidden Content:</div>
<blockquote>You must reply before you can see the hidden data contained here.</blockquote>
</div></div>
<div class="messageTextEndMarker">&nbsp;</div>
</blockquote>
</article>]]></description>
                <author><![CDATA[Librious]]></author>
                </item>

                </channel></rss>